<?xml version="1.0" encoding="UTF-8" standalone="no"?>
<svg
   version="1.0"
   width="50.000000pt"
   height="50.000000pt"
   viewBox="0 0 50.000000 50.000000"
   preserveAspectRatio="xMidYMid meet"
   id="svg254"
   sodipodi:docname="icons8-joker-50-new.svg"
   inkscape:version="1.2.2 (732a01da63, 2022-12-09)"
   xmlns:inkscape="http://www.inkscape.org/namespaces/inkscape"
   xmlns:sodipodi="http://sodipodi.sourceforge.net/DTD/sodipodi-0.dtd"
   xmlns="http://www.w3.org/2000/svg"
   xmlns:svg="http://www.w3.org/2000/svg">
  <defs
     id="defs258" />
  <sodipodi:namedview
     id="namedview256"
     pagecolor="#ffffff"
     bordercolor="#000000"
     borderopacity="0.25"
     inkscape:showpageshadow="2"
     inkscape:pageopacity="0.0"
     inkscape:pagecheckerboard="0"
     inkscape:deskcolor="#d1d1d1"
     inkscape:document-units="pt"
     showgrid="false"
     inkscape:zoom="15.03"
     inkscape:cx="33.333333"
     inkscape:cy="33.333333"
     inkscape:window-width="1718"
     inkscape:window-height="1361"
     inkscape:window-x="3633"
     inkscape:window-y="0"
     inkscape:window-maximized="0"
     inkscape:current-layer="svg254" />
  <path
     d="M 1,6.4 C -1.7,9.7 2.8,13.6 5.8,10.6 7.1,9.3 7.2,8.6 6.4,7.2 4.9,4.9 2.6,4.6 1,6.4 Z"
     id="path242"
     style="fill:#000000;stroke:none;stroke-width:0.1" />
  <path
     d="m 8.6,10.5 c -0.3,0.9 0.2,3.1 1.1,5 1.6,3.2 1.5,3.9 -0.5,11.2 -1.2,4.2 -2,7.7 -1.9,7.8 0.1,0 2.7,1.1 5.7,2.3 3.1,1.2 5.9,2.2 6.3,2.2 0.4,0 0.7,-1.8 0.7,-4 0,-2.2 0.9,-6.3 2,-9.1 1.7,-4.5 1.7,-5.5 0.6,-7.8 -1.7,-3.2 -4.1,-5.3 -8.3,-7.5 -4,-2 -4.9,-2 -5.7,-0.1 z"
     id="path244"
     style="fill:#000000;stroke:none;stroke-width:0.1" />
  <path
     d="m 44,12.4 c -2.7,3.3 1.8,7.2 4.8,4.2 1.3,-1.3 1.4,-2 0.6,-3.4 -1.5,-2.3 -3.8,-2.6 -5.4,-0.8 z"
     id="path246"
     style="fill:#000000;stroke:none;stroke-width:0.1" />
  <path
     d="m 34,15.6 c -7.1,3.1 -10.9,9.2 -11.8,18.7 l -0.5,6 4.9,-0.6 c 2.7,-0.3 7.3,-1.6 10.1,-2.9 L 42,34.5 39,30 c -3.7,-5.6 -3.8,-7.4 -0.1,-10.1 1.9,-1.4 2.7,-2.7 2.4,-4 -0.6,-2.3 -2.6,-2.4 -7.3,-0.3 z"
     id="path248"
     style="fill:#000000;stroke:none;stroke-width:0.1" />
  <path
     d="m 6.6,38.5 c -2.9,2.9 -1.8,4.6 4.9,7.7 12,5.5 35.7,0.7 32.9,-6.6 -0.9,-2.5 -3.2,-2.6 -7.9,-0.5 -9,4 -14.3,3.7 -26.6,-1.5 -1,-0.4 -2.3,0 -3.3,0.9 z"
     id="path250"
     style="fill:#000000;stroke:none;stroke-width:0.1" />
</svg>
