<svg version="1.0" xmlns="http://www.w3.org/2000/svg"
 width="512px" height="512px" viewBox="0 0 50.000000 50.000000"
 preserveAspectRatio="xMidYMid meet">

<!-- <g transform="translate(0.000000,50.000000) scale(0.100000,-0.100000)"
fill="#000000" stroke="none"> -->
<g transform="translate(0.000000,50.000000) scale(0.100000,-0.100000)"
fill="#000000" stroke="none">
<!-- Left ball on top of jester hat -->
<path d="M10 436 c-27 -33 18 -72 48 -42 13 13 14 20 6 34 -15 23 -38 26 -54
8z"/>

<!-- Left portion of jester hat -->
<path d="M86 395 c-3 -9 2 -31 11 -50 16 -32 15 -39 -5 -112 -12 -42 -20 -77
-19 -78 1 0 27 -11 57 -23 31 -12 59 -22 63 -22 4 0 7 18 7 40 0 22 9 63 20
91 17 45 17 55 6 78 -17 32 -41 53 -83 75 -40 20 -49 20 -57 1z"/>

<!-- Right ball on top of jester hat -->
<path d="M440 376 c-27 -33 18 -72 48 -42 13 13 14 20 6 34 -15 23 -38 26 -54
8z"/>

<!-- Right portion of jester hat -->
<path d="M340 344 c-71 -31 -109 -92 -118 -187 l-5 -60 49 6 c27 3 73 16 101
29 l53 23 -30 45 c-37 56 -38 74 -1 101 19 14 27 27 24 40 -6 23 -26 24 -73 3z"/>

<!-- Bottom of jester hat -->
<path d="M66 115 c-29 -29 -18 -46 49 -77 120 -55 357 -7 329 66 -9 25 -32 26
-79 5 -90 -40 -143 -37 -266 15 -10 4 -23 0 -33 -9z"/>
</g>
</svg>